{
  "asset": {
    "generator": "Khronos glTF Blender I/O v3.6.27",
    "version": "2.0"
  },
  "extensionsUsed": ["KHR_materials_specular", "KHR_materials_ior"],
  "scene": 0,
  "scenes": [
    {
      "name": "Scene",
      "nodes": [0, 1, 2, 3, 4, 5, 6, 7]
    }
  ],
  "nodes": [
    {
      "mesh": 0,
      "name": "Sphere",
      "scale": [0.31016623973846436, 0.31016623973846436, 0.31016623973846436]
    },
    {
      "mesh": 1,
      "name": "Sphere.004",
      "scale": [0.31016623973846436, 0.31016623973846436, 0.31016623973846436],
      "translation": [0, -0.31659045815467834, 0.948205828666687]
    },
    {
      "mesh": 2,
      "name": "Cylinder",
      "rotation": [
        0.6389725804328918, 0.769229531288147, 0, 8.750595803519445e-9
      ],
      "scale": [
        -0.055120229721069336, -0.4582969844341278, -0.055120229721069336
      ],
      "translation": [-0.48192110657691956, -0.017588362097740173, 0]
    },
    {
      "mesh": 3,
      "name": "Cylinder.003",
      "rotation": [
        -0.39074087142944336, -0.5893399715423584, 0.39074087142944336,
        0.5893399715423584
      ],
      "scale": [
        -0.055120229721069336, -0.4582969844341278, -0.055120229721069336
      ],
      "translation": [
        0.012821465730667114, -0.13358569145202637, 0.4684293866157532
      ]
    },
    {
      "mesh": 4,
      "name": "Cylinder.004",
      "rotation": [
        -0.16446852684020996, -0.687713623046875, 0.16446855664253235,
        0.6877138018608093
      ],
      "scale": [
        -0.055120233446359634, -0.4582969844341278, -0.055120229721069336
      ],
      "translation": [
        0.012821465730667114, 0.43982118368148804, -0.18220952153205872
      ]
    },
    {
      "mesh": 5,
      "name": "Sphere.001",
      "scale": [0.31016623973846436, 0.31016623973846436, 0.31016623973846436],
      "translation": [0, 0.932441234588623, -0.44513291120529175]
    },
    {
      "mesh": 6,
      "name": "Cylinder.001",
      "rotation": [
        0.6389725804328918, 0.769229531288147, 0, 8.750595803519445e-9
      ],
      "scale": [
        -0.055120229721069336, -0.4582969844341278, -0.055120229721069336
      ],
      "translation": [-0.48192110657691956, -0.017588362097740173, 0]
    },
    {
      "mesh": 7,
      "name": "Sphere.002",
      "scale": [0.31016623973846436, 0.31016623973846436, 0.31016623973846436],
      "translation": [-1, -0.13859069347381592, 0]
    }
  ],
  "materials": [
    {
      "doubleSided": true,
      "extensions": {
        "KHR_materials_specular": {
          "specularColorFactor": [
            0.8407541095599631, 0.8407541095599631, 0.8407541095599631
          ]
        },
        "KHR_materials_ior": {
          "ior": 1.4500000476837158
        }
      },
      "name": "Material.001",
      "pbrMetallicRoughness": {
        "metallicFactor": 0.565335750579834,
        "roughnessFactor": 0.18912777304649353
      }
    }
  ],
  "meshes": [
    {
      "name": "Sphere.012",
      "primitives": [
        {
          "attributes": {
            "POSITION": 0,
            "NORMAL": 1,
            "TEXCOORD_0": 2
          },
          "indices": 3,
          "material": 0
        }
      ]
    },
    {
      "name": "Sphere.017",
      "primitives": [
        {
          "attributes": {
            "POSITION": 4,
            "NORMAL": 5,
            "TEXCOORD_0": 6
          },
          "indices": 3,
          "material": 0
        }
      ]
    },
    {
      "name": "Cylinder.001",
      "primitives": [
        {
          "attributes": {
            "POSITION": 7,
            "NORMAL": 8,
            "TEXCOORD_0": 9
          },
          "indices": 10,
          "material": 0
        }
      ]
    },
    {
      "name": "Cylinder.004",
      "primitives": [
        {
          "attributes": {
            "POSITION": 11,
            "NORMAL": 12,
            "TEXCOORD_0": 13
          },
          "indices": 10,
          "material": 0
        }
      ]
    },
    {
      "name": "Cylinder.005",
      "primitives": [
        {
          "attributes": {
            "POSITION": 14,
            "NORMAL": 15,
            "TEXCOORD_0": 16
          },
          "indices": 10,
          "material": 0
        }
      ]
    },
    {
      "name": "Sphere.018",
      "primitives": [
        {
          "attributes": {
            "POSITION": 17,
            "NORMAL": 18,
            "TEXCOORD_0": 19
          },
          "indices": 3,
          "material": 0
        }
      ]
    },
    {
      "name": "Cylinder.002",
      "primitives": [
        {
          "attributes": {
            "POSITION": 20,
            "NORMAL": 21,
            "TEXCOORD_0": 22
          },
          "indices": 10,
          "material": 0
        }
      ]
    },
    {
      "name": "Sphere.014",
      "primitives": [
        {
          "attributes": {
            "POSITION": 23,
            "NORMAL": 24,
            "TEXCOORD_0": 25
          },
          "indices": 3,
          "material": 0
        }
      ]
    }
  ],
  "accessors": [
    {
      "bufferView": 0,
      "componentType": 5126,
      "count": 559,
      "max": [0.9999997019767761, 1, 0.9999993443489075],
      "min": [-0.9999990463256836, -1, -1],
      "type": "VEC3"
    },
    {
      "bufferView": 1,
      "componentType": 5126,
      "count": 559,
      "type": "VEC3"
    },
    {
      "bufferView": 2,
      "componentType": 5126,
      "count": 559,
      "type": "VEC2"
    },
    {
      "bufferView": 3,
      "componentType": 5123,
      "count": 2880,
      "type": "SCALAR"
    },
    {
      "bufferView": 4,
      "componentType": 5126,
      "count": 559,
      "max": [0.9999997019767761, 1, 0.9999993443489075],
      "min": [-0.9999990463256836, -1, -1],
      "type": "VEC3"
    },
    {
      "bufferView": 5,
      "componentType": 5126,
      "count": 559,
      "type": "VEC3"
    },
    {
      "bufferView": 6,
      "componentType": 5126,
      "count": 559,
      "type": "VEC2"
    },
    {
      "bufferView": 7,
      "componentType": 5126,
      "count": 640,
      "max": [1, 1, 1],
      "min": [-1, -1, -1],
      "type": "VEC3"
    },
    {
      "bufferView": 8,
      "componentType": 5126,
      "count": 640,
      "type": "VEC3"
    },
    {
      "bufferView": 9,
      "componentType": 5126,
      "count": 640,
      "type": "VEC2"
    },
    {
      "bufferView": 10,
      "componentType": 5123,
      "count": 1128,
      "type": "SCALAR"
    },
    {
      "bufferView": 11,
      "componentType": 5126,
      "count": 640,
      "max": [1, 1, 1],
      "min": [-1, -1, -1],
      "type": "VEC3"
    },
    {
      "bufferView": 12,
      "componentType": 5126,
      "count": 640,
      "type": "VEC3"
    },
    {
      "bufferView": 13,
      "componentType": 5126,
      "count": 640,
      "type": "VEC2"
    },
    {
      "bufferView": 14,
      "componentType": 5126,
      "count": 640,
      "max": [1, 1, 1],
      "min": [-1, -1, -1],
      "type": "VEC3"
    },
    {
      "bufferView": 15,
      "componentType": 5126,
      "count": 640,
      "type": "VEC3"
    },
    {
      "bufferView": 16,
      "componentType": 5126,
      "count": 640,
      "type": "VEC2"
    },
    {
      "bufferView": 17,
      "componentType": 5126,
      "count": 559,
      "max": [0.9999997019767761, 1, 0.9999993443489075],
      "min": [-0.9999990463256836, -1, -1],
      "type": "VEC3"
    },
    {
      "bufferView": 18,
      "componentType": 5126,
      "count": 559,
      "type": "VEC3"
    },
    {
      "bufferView": 19,
      "componentType": 5126,
      "count": 559,
      "type": "VEC2"
    },
    {
      "bufferView": 20,
      "componentType": 5126,
      "count": 640,
      "max": [1, 1, 1],
      "min": [-1, -1, -1],
      "type": "VEC3"
    },
    {
      "bufferView": 21,
      "componentType": 5126,
      "count": 640,
      "type": "VEC3"
    },
    {
      "bufferView": 22,
      "componentType": 5126,
      "count": 640,
      "type": "VEC2"
    },
    {
      "bufferView": 23,
      "componentType": 5126,
      "count": 559,
      "max": [0.9999997019767761, 1, 0.9999993443489075],
      "min": [-0.9999990463256836, -1, -1],
      "type": "VEC3"
    },
    {
      "bufferView": 24,
      "componentType": 5126,
      "count": 559,
      "type": "VEC3"
    },
    {
      "bufferView": 25,
      "componentType": 5126,
      "count": 559,
      "type": "VEC2"
    }
  ],
  "bufferViews": [
    {
      "buffer": 0,
      "byteLength": 6708,
      "byteOffset": 0,
      "target": 34962
    },
    {
      "buffer": 0,
      "byteLength": 6708,
      "byteOffset": 6708,
      "target": 34962
    },
    {
      "buffer": 0,
      "byteLength": 4472,
      "byteOffset": 13416,
      "target": 34962
    },
    {
      "buffer": 0,
      "byteLength": 5760,
      "byteOffset": 17888,
      "target": 34963
    },
    {
      "buffer": 0,
      "byteLength": 6708,
      "byteOffset": 23648,
      "target": 34962
    },
    {
      "buffer": 0,
      "byteLength": 6708,
      "byteOffset": 30356,
      "target": 34962
    },
    {
      "buffer": 0,
      "byteLength": 4472,
      "byteOffset": 37064,
      "target": 34962
    },
    {
      "buffer": 0,
      "byteLength": 7680,
      "byteOffset": 41536,
      "target": 34962
    },
    {
      "buffer": 0,
      "byteLength": 7680,
      "byteOffset": 49216,
      "target": 34962
    },
    {
      "buffer": 0,
      "byteLength": 5120,
      "byteOffset": 56896,
      "target": 34962
    },
    {
      "buffer": 0,
      "byteLength": 2256,
      "byteOffset": 62016,
      "target": 34963
    },
    {
      "buffer": 0,
      "byteLength": 7680,
      "byteOffset": 64272,
      "target": 34962
    },
    {
      "buffer": 0,
      "byteLength": 7680,
      "byteOffset": 71952,
      "target": 34962
    },
    {
      "buffer": 0,
      "byteLength": 5120,
      "byteOffset": 79632,
      "target": 34962
    },
    {
      "buffer": 0,
      "byteLength": 7680,
      "byteOffset": 84752,
      "target": 34962
    },
    {
      "buffer": 0,
      "byteLength": 7680,
      "byteOffset": 92432,
      "target": 34962
    },
    {
      "buffer": 0,
      "byteLength": 5120,
      "byteOffset": 100112,
      "target": 34962
    },
    {
      "buffer": 0,
      "byteLength": 6708,
      "byteOffset": 105232,
      "target": 34962
    },
    {
      "buffer": 0,
      "byteLength": 6708,
      "byteOffset": 111940,
      "target": 34962
    },
    {
      "buffer": 0,
      "byteLength": 4472,
      "byteOffset": 118648,
      "target": 34962
    },
    {
      "buffer": 0,
      "byteLength": 7680,
      "byteOffset": 123120,
      "target": 34962
    },
    {
      "buffer": 0,
      "byteLength": 7680,
      "byteOffset": 130800,
      "target": 34962
    },
    {
      "buffer": 0,
      "byteLength": 5120,
      "byteOffset": 138480,
      "target": 34962
    },
    {
      "buffer": 0,
      "byteLength": 6708,
      "byteOffset": 143600,
      "target": 34962
    },
    {
      "buffer": 0,
      "byteLength": 6708,
      "byteOffset": 150308,
      "target": 34962
    },
    {
      "buffer": 0,
      "byteLength": 4472,
      "byteOffset": 157016,
      "target": 34962
    }
  ],
  "buffers": [
    {
      "byteLength": 161488,
      "uri": "molecule.bin"
    }
  ]
}
